<svg xmlns="http://www.w3.org/2000/svg" xmlns:xlink="http://www.w3.org/1999/xlink" width="500" zoomAndPan="magnify" viewBox="0 0 375 374.999991" height="500" preserveAspectRatio="xMidYMid meet" version="1.0"><defs><clipPath id="70bd6feb13"><path d="M 112.5 112.5 L 262.5 112.5 L 262.5 262.5 L 112.5 262.5 Z M 112.5 112.5 " clip-rule="nonzero"/></clipPath></defs><rect x="-37.5" width="450" fill="#ffffff" y="-37.499999" height="449.999989" fill-opacity="1"/><rect x="-37.5" width="450" fill="#ffffff" y="-37.499999" height="449.999989" fill-opacity="1"/><g clip-path="url(#70bd6feb13)"><path fill="#fefefe" d="M 112.5 112.5 L 262.5 112.5 L 262.5 262.5 L 112.5 262.5 Z M 112.5 112.5 " fill-opacity="1" fill-rule="nonzero"/></g><path fill="#000000" d="M 173.269531 135.382812 C 173.714844 135.425781 173.714844 135.425781 174.230469 135.578125 C 174.542969 135.964844 174.542969 135.964844 174.820312 136.476562 L 175.136719 137.058594 L 175.46875 137.691406 C 175.707031 138.136719 175.949219 138.578125 176.1875 139.019531 L 176.558594 139.710938 C 177.117188 140.742188 177.691406 141.765625 178.269531 142.789062 C 178.605469 143.390625 178.941406 143.988281 179.277344 144.589844 L 180.625 146.996094 L 181.296875 148.195312 C 181.863281 149.207031 182.429688 150.21875 182.996094 151.230469 L 183.679688 152.453125 L 184.011719 153.050781 C 184.5625 154.035156 185.117188 155.015625 185.683594 155.992188 L 186.007812 156.5625 C 186.214844 156.914062 186.417969 157.269531 186.625 157.621094 L 186.898438 158.09375 L 187.136719 158.507812 C 187.308594 158.847656 187.308594 158.847656 187.308594 159.230469 C 187.808594 158.777344 188.109375 158.304688 188.433594 157.714844 L 188.753906 157.136719 L 189.097656 156.515625 L 189.832031 155.195312 L 190.207031 154.511719 C 190.769531 153.496094 191.339844 152.480469 191.910156 151.464844 C 192.84375 149.800781 193.773438 148.136719 194.699219 146.464844 L 195.058594 145.816406 C 195.613281 144.820312 196.167969 143.820312 196.71875 142.820312 C 198.101562 140.324219 199.492188 137.832031 200.960938 135.382812 L 201.730469 135.578125 L 201.921875 162.691406 C 202.855469 162.503906 203.402344 162.214844 204.171875 161.707031 C 205.539062 160.824219 206.9375 160.003906 208.351562 159.195312 C 210.253906 158.105469 212.140625 156.992188 214.015625 155.863281 C 215.460938 154.992188 216.914062 154.125 218.367188 153.273438 C 219.261719 152.75 220.148438 152.21875 221.03125 151.679688 C 221.507812 151.390625 221.984375 151.101562 222.460938 150.8125 C 222.695312 150.671875 222.925781 150.53125 223.15625 150.386719 C 223.480469 150.1875 223.804688 149.992188 224.128906 149.796875 L 224.695312 149.453125 L 225.191406 149.230469 C 225.644531 149.292969 225.644531 149.292969 225.960938 149.421875 C 226.085938 149.75 226.085938 149.75 226.152344 150.191406 C 225.96875 150.625 225.96875 150.625 225.671875 151.101562 L 225.332031 151.65625 L 224.953125 152.257812 L 224.355469 153.230469 C 224.214844 153.460938 224.074219 153.691406 223.929688 153.921875 C 223.179688 155.140625 222.449219 156.375 221.71875 157.605469 C 221.410156 158.128906 221.101562 158.648438 220.792969 159.167969 L 220.085938 160.359375 C 219.539062 161.28125 218.992188 162.203125 218.445312 163.125 C 217.839844 164.144531 217.234375 165.164062 216.628906 166.1875 C 216.179688 166.941406 215.730469 167.695312 215.285156 168.449219 C 214.996094 168.929688 214.710938 169.414062 214.421875 169.898438 L 213.828125 170.898438 L 213.46875 171.503906 L 213.152344 172.035156 C 212.921875 172.4375 212.707031 172.851562 212.5 173.269531 L 240 173.269531 L 240.191406 174.230469 C 238.238281 175.40625 236.253906 176.53125 234.253906 177.632812 L 233.894531 177.832031 L 232.433594 178.632812 C 229.414062 180.289062 226.40625 181.964844 223.414062 183.664062 C 222.382812 184.25 221.347656 184.828125 220.308594 185.398438 L 219.582031 185.796875 C 219.113281 186.054688 218.644531 186.3125 218.175781 186.566406 L 217.539062 186.917969 L 216.964844 187.230469 L 216.539062 187.5 L 216.347656 187.882812 L 216.71875 188.09375 C 218.9375 189.332031 221.152344 190.574219 223.367188 191.828125 C 224.902344 192.695312 226.441406 193.5625 227.980469 194.421875 C 229.703125 195.382812 231.417969 196.351562 233.132812 197.324219 C 234.015625 197.828125 234.90625 198.324219 235.800781 198.8125 C 236.136719 198.996094 236.472656 199.179688 236.808594 199.363281 C 237.238281 199.597656 237.667969 199.832031 238.097656 200.0625 L 238.683594 200.386719 L 239.199219 200.667969 C 239.617188 200.960938 239.617188 200.960938 239.878906 201.359375 L 240 201.730469 L 239.808594 202.117188 L 212.308594 202.117188 L 215.578125 207.5 C 216.128906 208.433594 216.679688 209.363281 217.222656 210.300781 C 217.496094 210.769531 217.769531 211.234375 218.042969 211.703125 L 218.246094 212.050781 C 218.953125 213.261719 219.667969 214.46875 220.382812 215.671875 C 221.625 217.765625 222.859375 219.859375 224.085938 221.957031 L 224.472656 222.621094 L 224.839844 223.25 C 225.070312 223.640625 225.308594 224.027344 225.550781 224.40625 L 225.875 224.921875 L 226.164062 225.363281 L 226.347656 225.769531 C 226.28125 226.207031 226.28125 226.207031 226.152344 226.539062 C 225.332031 226.425781 224.757812 226.136719 224.046875 225.714844 L 223.714844 225.519531 C 223.359375 225.308594 223 225.09375 222.644531 224.878906 L 221.890625 224.433594 C 221.132812 223.984375 220.375 223.53125 219.617188 223.078125 L 219.277344 222.875 C 218.164062 222.207031 217.050781 221.539062 215.9375 220.871094 C 214.71875 220.140625 213.5 219.414062 212.273438 218.695312 C 210.632812 217.726562 208.992188 216.753906 207.355469 215.78125 L 206.957031 215.542969 L 205.441406 214.644531 C 204.582031 214.132812 203.726562 213.617188 202.875 213.09375 C 202.480469 212.859375 202.480469 212.859375 201.921875 212.691406 L 201.921875 240 L 200.960938 240.191406 C 199.632812 237.851562 198.3125 235.503906 197.007812 233.148438 C 196.15625 231.613281 195.296875 230.082031 194.421875 228.558594 C 193.421875 226.816406 192.445312 225.066406 191.476562 223.308594 C 190.871094 222.21875 190.261719 221.128906 189.644531 220.046875 L 189.292969 219.425781 C 189.070312 219.039062 188.847656 218.652344 188.625 218.265625 L 188.328125 217.746094 L 188.070312 217.289062 C 187.882812 216.921875 187.882812 216.921875 187.882812 216.539062 L 187.308594 216.539062 L 187.152344 216.953125 C 186.917969 217.515625 186.644531 218.03125 186.347656 218.5625 L 186 219.1875 L 185.625 219.855469 L 185.234375 220.554688 C 184.902344 221.152344 184.566406 221.75 184.230469 222.347656 C 183.933594 222.875 183.640625 223.40625 183.34375 223.933594 C 182.898438 224.726562 182.457031 225.519531 182.011719 226.3125 C 181.566406 227.109375 181.117188 227.90625 180.675781 228.707031 C 179.441406 230.917969 178.1875 233.117188 176.910156 235.300781 C 176 236.855469 175.105469 238.421875 174.230469 240 L 173.460938 240 C 173.269531 239.421875 173.246094 239.039062 173.246094 238.433594 L 173.242188 237.816406 L 173.246094 237.132812 L 173.242188 236.417969 C 173.242188 235.769531 173.242188 235.121094 173.242188 234.46875 C 173.242188 233.789062 173.242188 233.109375 173.242188 232.425781 C 173.242188 231.28125 173.242188 230.136719 173.246094 228.988281 C 173.246094 227.667969 173.246094 226.351562 173.242188 225.03125 C 173.242188 223.894531 173.242188 222.757812 173.242188 221.625 C 173.242188 220.945312 173.242188 220.269531 173.242188 219.59375 C 173.242188 218.835938 173.242188 218.078125 173.246094 217.320312 L 173.242188 216.652344 C 173.246094 215.257812 173.324219 213.886719 173.460938 212.5 C 171.863281 213.359375 170.289062 214.261719 168.726562 215.179688 L 168.359375 215.394531 C 166.484375 216.496094 164.617188 217.609375 162.753906 218.730469 C 160.65625 219.992188 158.550781 221.238281 156.441406 222.484375 C 155.378906 223.117188 154.316406 223.746094 153.253906 224.375 L 152.242188 224.972656 L 151.625 225.339844 L 151.082031 225.664062 C 150.738281 225.867188 150.394531 226.078125 150.058594 226.292969 L 149.617188 226.539062 C 149.171875 226.476562 149.171875 226.476562 148.847656 226.347656 C 148.949219 225.523438 149.125 224.949219 149.558594 224.246094 L 149.894531 223.695312 L 150.265625 223.101562 C 150.460938 222.78125 150.65625 222.457031 150.851562 222.136719 C 150.992188 221.910156 151.132812 221.679688 151.269531 221.453125 C 152.015625 220.234375 152.746094 219.007812 153.472656 217.777344 C 153.703125 217.386719 153.933594 217 154.167969 216.609375 C 154.792969 215.554688 155.414062 214.503906 156.039062 213.449219 C 156.425781 212.800781 156.808594 212.152344 157.195312 211.503906 L 157.8125 210.460938 C 159.429688 207.734375 161.0625 205.023438 162.691406 202.308594 L 135.382812 202.308594 L 135.191406 201.152344 C 137.363281 199.917969 139.535156 198.691406 141.730469 197.5 C 143.542969 196.515625 145.335938 195.507812 147.128906 194.492188 C 148.316406 193.820312 149.507812 193.152344 150.695312 192.488281 C 152.558594 191.445312 154.417969 190.394531 156.269531 189.332031 L 156.703125 189.082031 C 156.976562 188.925781 157.242188 188.769531 157.511719 188.613281 C 157.824219 188.429688 158.140625 188.25 158.460938 188.078125 L 158.847656 188.078125 L 158.652344 187.5 C 158.269531 187.226562 158.269531 187.226562 157.78125 186.984375 L 157.222656 186.6875 L 156.609375 186.371094 C 156.183594 186.144531 155.757812 185.917969 155.332031 185.691406 L 154.671875 185.339844 C 153.734375 184.835938 152.8125 184.3125 151.886719 183.785156 C 150.207031 182.832031 148.519531 181.890625 146.828125 180.960938 C 144.953125 179.929688 143.082031 178.894531 141.226562 177.835938 C 140.277344 177.292969 139.324219 176.761719 138.367188 176.238281 L 137.742188 175.898438 C 137.347656 175.679688 136.953125 175.464844 136.554688 175.253906 L 136.023438 174.957031 L 135.550781 174.699219 L 135.191406 174.421875 C 135.03125 174.015625 135.03125 174.015625 135 173.652344 L 135.191406 173.460938 C 135.546875 173.441406 135.902344 173.4375 136.257812 173.4375 L 136.960938 173.4375 L 137.738281 173.441406 L 138.550781 173.441406 C 139.289062 173.441406 140.027344 173.441406 140.765625 173.441406 C 141.535156 173.441406 142.304688 173.445312 143.074219 173.445312 C 144.535156 173.445312 145.996094 173.445312 147.453125 173.449219 C 149.117188 173.449219 150.777344 173.449219 152.4375 173.453125 C 155.855469 173.453125 159.273438 173.457031 162.691406 173.460938 L 162.136719 172.441406 L 161.824219 171.871094 C 161.519531 171.3125 161.207031 170.765625 160.882812 170.21875 L 160.527344 169.628906 L 160.15625 169.003906 L 159.753906 168.328125 L 159.121094 167.261719 C 158.601562 166.386719 158.082031 165.511719 157.5625 164.636719 C 156.007812 162.007812 154.4375 159.382812 152.847656 156.777344 C 151.976562 155.351562 151.125 153.921875 150.324219 152.460938 C 150.03125 151.921875 149.726562 151.421875 149.375 150.921875 L 149.039062 150.382812 C 149.085938 149.734375 149.085938 149.734375 149.230469 149.230469 C 150.0625 149.34375 150.640625 149.640625 151.359375 150.070312 L 151.691406 150.265625 C 152.054688 150.480469 152.414062 150.699219 152.777344 150.914062 L 153.535156 151.363281 C 154.046875 151.664062 154.554688 151.96875 155.0625 152.269531 C 155.835938 152.734375 156.613281 153.191406 157.390625 153.648438 C 157.722656 153.847656 158.054688 154.042969 158.390625 154.242188 C 159.363281 154.816406 160.335938 155.390625 161.3125 155.957031 L 162.714844 156.777344 L 163.070312 156.984375 C 165.109375 158.175781 167.132812 159.394531 169.144531 160.632812 L 169.773438 161.019531 L 170.316406 161.351562 C 170.890625 161.691406 171.472656 162.011719 172.058594 162.332031 C 172.25 162.433594 172.441406 162.539062 172.636719 162.644531 L 173.078125 162.882812 L 173.078125 162.460938 C 173.074219 159.074219 173.070312 155.6875 173.066406 152.296875 C 173.066406 150.660156 173.066406 149.019531 173.0625 147.382812 C 173.0625 145.957031 173.058594 144.527344 173.058594 143.101562 C 173.058594 142.34375 173.058594 141.585938 173.058594 140.832031 C 173.054688 140.121094 173.054688 139.410156 173.054688 138.699219 C 173.054688 138.3125 173.054688 137.925781 173.054688 137.539062 L 173.054688 136.238281 C 173.078125 135.769531 173.078125 135.769531 173.269531 135.382812 " fill-opacity="1" fill-rule="nonzero"/><path fill="#fefefe" d="M 196.085938 167.410156 C 199.667969 168.96875 202.796875 171.28125 205.175781 174.414062 C 207.417969 177.484375 208.925781 181.109375 209.378906 184.898438 C 209.761719 189.148438 209.292969 193.214844 207.542969 197.128906 C 206.753906 198.8125 205.8125 200.300781 204.617188 201.730469 L 204.128906 202.3125 C 201.554688 205.296875 198.324219 207.355469 194.617188 208.652344 C 190.644531 209.992188 186.640625 210.097656 182.554688 209.28125 C 178.316406 208.257812 174.78125 206.046875 171.632812 203.066406 C 169.125 200.492188 167.285156 197.210938 166.308594 193.75 C 165.339844 189.550781 165.3125 185.40625 166.515625 181.257812 L 166.730469 180.578125 L 166.921875 179.964844 C 167.9375 177.011719 169.730469 174.492188 171.921875 172.308594 L 172.332031 171.871094 C 174.578125 169.503906 177.851562 167.683594 180.960938 166.730469 C 181.851562 166.503906 182.75 166.3125 183.652344 166.152344 L 184.253906 166.046875 C 188.265625 165.589844 192.308594 165.949219 196.085938 167.410156 " fill-opacity="1" fill-rule="nonzero"/></svg>